<svg xmlns="http://www.w3.org/2000/svg" xmlns:xlink="http://www.w3.org/1999/xlink" width="100" height="100" viewBox="0 0 100 100"><g><circle stroke="none" fill="#f89c33" r="48%" cx="50%" cy="50%"></circle><g transform="translate(50 50) scale(0.69 0.69) rotate(0) translate(-50 -50)" style="fill:#102c3c"><svg fill="#102c3c" xmlns="http://www.w3.org/2000/svg" xmlns:xlink="http://www.w3.org/1999/xlink" version="1.1" x="0px" y="0px" viewBox="0 0 100 100" enable-background="new 0 0 100 100" xml:space="preserve"><g><path d="M83.343,21.922H25.118c-3.868,0-7.015-3.147-7.015-7.015c0-3.867,3.147-7.014,7.011-7.014l54.114,0.162   c0.001,0,0.003,0,0.004,0c0.797,0,1.444-0.645,1.446-1.442c0.002-0.799-0.643-1.448-1.442-1.451L25.118,5   c-5.463,0-9.908,4.445-9.908,9.907v59.402h0.097c0.645,4.844,4.793,8.596,9.811,8.596h3.55v10.647c0,0.518,0.276,0.995,0.725,1.253   c0.224,0.129,0.472,0.193,0.721,0.193c0.251,0,0.502-0.065,0.727-0.196l5.6-3.257l5.6,3.257c0.448,0.261,1.001,0.263,1.449,0.003   c0.449-0.258,0.725-0.735,0.725-1.253V82.906h39.127c0.799,0,1.446-0.648,1.446-1.446v-58.09   C84.789,22.57,84.142,21.922,83.343,21.922z M41.323,91.039l-4.153-2.416c-0.45-0.262-1.005-0.262-1.454,0l-4.154,2.416v-8.133   h9.762V91.039z M81.897,80.013H42.769H30.115h-4.032V39.875c0-0.533-0.432-0.964-0.964-0.964c-0.533,0-0.964,0.431-0.964,0.964   v40.064c-3.412-0.472-6.051-3.401-6.051-6.94V21.896c1.582,1.588,3.697,2.642,6.051,2.87v9.564c0,0.533,0.432,0.964,0.964,0.964   c0.533,0,0.964-0.431,0.964-0.964v-9.515h55.814V80.013z"></path><path d="M25.12,11.123c0,0-0.001,0-0.002,0c-0.532,0-0.963,0.43-0.964,0.962c-0.001,0.533,0.43,0.965,0.962,0.966L80.6,13.159   c0,0,0.001,0,0.002,0c0.532,0,0.963-0.43,0.964-0.962c0.001-0.533-0.43-0.965-0.962-0.966L25.12,11.123z"></path><path d="M25.118,16.763c-0.532,0-0.964,0.431-0.964,0.963c0,0.533,0.431,0.964,0.963,0.965l56.854,0.055c0,0,0,0,0.001,0   c0.532,0,0.964-0.431,0.964-0.963c0-0.533-0.431-0.964-0.963-0.965L25.118,16.763C25.119,16.763,25.119,16.763,25.118,16.763z"></path><path d="M61.033,46.292c0.347,0.193,0.559,0.569,0.559,0.984v4.648l-0.203,0.135c-0.646,0.482-1.041,1.225-1.041,2.006v20.857   c0,1.35,1.099,2.449,2.459,2.449h0.241c1.35,0,2.449-1.099,2.449-2.449V54.064c0-0.791-0.386-1.533-1.041-1.996l-0.203-0.145   v-4.648c0-0.405,0.212-0.781,0.55-0.974c2.43-1.311,4.05-4.956,4.05-9.093c0-5.371-2.603-9.585-5.93-9.585   c-3.327,0-5.93,4.214-5.93,9.585C56.993,41.345,58.613,44.99,61.033,46.292z M63.714,30.015c0.241-0.28,0.665-0.318,0.945-0.077   c0.752,0.636,1.389,1.63,1.851,2.883c0.125,0.347-0.048,0.742-0.395,0.868c-0.077,0.029-0.154,0.048-0.241,0.048   c-0.27,0-0.53-0.174-0.627-0.444c-0.376-1.022-0.897-1.851-1.456-2.324C63.502,30.729,63.473,30.305,63.714,30.015z"></path><path d="M42.356,46.793c0.633,0,1.147,0.51,1.147,1.138v3.992l-0.204,0.144c-0.651,0.46-1.04,1.206-1.04,1.997V74.92   c0,1.35,1.099,2.449,2.449,2.449h0.241c1.35,0,2.449-1.099,2.449-2.449V54.064c0-0.782-0.387-1.53-1.035-2.001l-0.199-0.144v-3.988   c0-0.637,0.5-1.138,1.138-1.138c1.51,0,2.739-1.229,2.739-2.738v-4.166l-0.597-10.84c-0.001-0.917-0.432-1.589-1.004-1.589   c-0.566,0-0.993,0.68-0.993,1.581l0.385,10.831c0,0.539-0.428,0.962-0.954,0.962c-0.521,0-0.945-0.424-0.945-0.945l-0.106-10.862   c0-0.896-0.431-1.567-1.003-1.567c-0.557,0-0.993,0.682-0.993,1.553l-0.106,10.871c0,0.526-0.428,0.95-0.954,0.95   c-0.521,0-0.945-0.424-0.945-0.945l0.386-10.884c0-0.859-0.436-1.545-0.993-1.545c-0.562,0-1.003,0.67-1.003,1.524l-0.608,11.005   v4.066C39.608,45.564,40.84,46.793,42.356,46.793z"></path></g></svg></g></g></svg>
